<svg height="34" width="29.565" xmlns="http://www.w3.org/2000/svg">
                                                            <g transform="translate(-4 -1)"><path d="M21 15.782v3.755a2.938 2.938 0 00.865 1.877 7.489 7.489 0 001.722 1.39 3.812 3.812 0 011.843 3.268v.059a1.483 1.483 0 01-1.478 1.478H13.608a1.483 1.483 0 01-1.478-1.478v-.059a3.828 3.828 0 01.5-1.877 3.75 3.75 0 011.353-1.39c1.146-.687 2.587-1.929 2.587-3.267v-4.036a8.893 8.893 0 004.435 0z" fill="#ffdc56"></path><path d="M18.783 3.217l-1.479 2.957h-2.956l2.217 2.217-.739 3.7 2.957-2.221 2.957 2.217-.739-3.7 2.212-2.213h-2.952zM21 15.5A8.87 8.87 0 019.913 6.913V1h17.739v5.913a8.87 8.87 0 01-6.653 8.587z" fill="#fff86a"></path><path d="M31.348 1.739h-3.7v1.478h3.7a.739.739 0 01.739.739 10.884 10.884 0 01-2.234 6.583 10.745 10.745 0 01-5.784 3.854l-.953.254a8.811 8.811 0 01-2.116.855v1.155l.739-.135a.723.723 0 00.191-.025l2.52-.673a12.367 12.367 0 006.579-4.385 12.368 12.368 0 002.537-7.486 2.217 2.217 0 00-2.218-2.214zM16.565 15.502a8.811 8.811 0 01-2.115-.851l-.953-.254a10.741 10.741 0 01-5.784-3.858 10.884 10.884 0 01-2.235-6.583.739.739 0 01.739-.739h3.7V1.739h-3.7A2.217 2.217 0 004 3.956a12.371 12.371 0 002.541 7.483 12.369 12.369 0 006.574 4.38l2.52.673a.723.723 0 00.191.025l.739.135z" fill="#ffa233"></path><path d="M10.652 1h-.739v5.913a8.864 8.864 0 0015.5 5.887C16.797 12.485 10.652 9.39 10.652 1z" fill="#ffdc56"></path><path d="M23.218 6.174L21 8.391l.739 3.7-2.957-2.217-2.956 2.213.739-3.7-2.217-2.213h2.957l1.478-2.957 1.478 2.957z" fill="#ffa233"></path><path d="M17.305 6.174h-2.957l4.435 1.478zm2.956 0l-1.478-2.957v4.435z" fill="#ffca46"></path><path d="M18.782 3.217l-1.478 2.957 1.478 1.478zm4.436 2.957h-2.957l-1.478 1.478z" fill="#ffb337"></path><path d="M21 8.391l2.218-2.217-4.435 1.478z" fill="#ff8d1f"></path><path d="M16.565 8.391l-.739 3.696 2.957-4.435z" fill="#ff711f"></path><path d="M18.783 9.869l2.957 2.217-2.957-4.434z" fill="#ff8d1f"></path><path d="M18.783 7.652l2.957 4.435-.739-3.7z" fill="#ffb337"></path><path d="M15.826 12.087l2.957-2.217V7.652z" fill="#ffa233"></path><path d="M14.348 6.174l2.217 2.217 2.217-.739z" fill="#ff8d1f"></path><path d="M23.901 5.891a.739.739 0 00-.683-.456h-2.5l-1.27-2.548a.77.77 0 00-1.323 0l-1.277 2.548h-2.5a.739.739 0 00-.523 1.262l1.937 1.938-.661 3.3a.739.739 0 001.168.739l2.513-1.885 2.513 1.885a.739.739 0 001.168-.739l-.661-3.308 1.937-1.938a.739.739 0 00.162-.798zm-2.9 2.5l.739 3.7-2.957-2.224-2.957 2.22.739-3.7-2.217-2.213h2.961l1.478-2.957 1.478 2.957h2.957z" fill="#ffdc56"></path><path d="M14.347 25.082a1.046 1.046 0 01.306-.739l2.091-2.091a4.435 4.435 0 001.3-3.135v-1.12a1.478 1.478 0 011.478-1.478H21v-1.017a8.893 8.893 0 01-4.435 0v4.036c0 1.338-1.441 2.58-2.587 3.267a3.75 3.75 0 00-1.353 1.39 3.828 3.828 0 00-.495 1.877v.059a1.483 1.483 0 001.478 1.478h10.348a1.483 1.483 0 001.474-1.478H15.393a1.045 1.045 0 01-1.046-1.049z" fill="#ffb337"></path><ellipse cx="1.214" cy="1.69" fill="#eaf6ff" rx="1.214" ry="1.69" transform="rotate(-45 15.678 -26.244)"></ellipse><ellipse cx=".61" cy=".849" fill="#eaf6ff" rx=".61" ry=".849" transform="rotate(-45 20.34 -26.8)"></ellipse><path d="M12.87 29.826h11.826v2.957H12.87z" fill="#fff86a"></path><path d="M12.87 32.783h11.826v-2.957H12.87zm11.087-5.174h4.439a1.478 1.478 0 011.478 1.478v4.435A1.478 1.478 0 0128.396 35H9.174a1.478 1.478 0 01-1.478-1.478v-4.435a1.478 1.478 0 011.478-1.478z" fill="#ff5e3e"></path><path d="M28.396 32.782H9.174a1.478 1.478 0 01-1.478-1.478v2.217a1.478 1.478 0 001.478 1.483h19.222a1.478 1.478 0 001.478-1.478v-2.222a1.478 1.478 0 01-1.478 1.478z" fill="#e1251b"></path><path d="M28.396 27.609H9.174a1.478 1.478 0 00-1.478 1.478v2.222a1.478 1.478 0 011.478-1.478h19.222a1.478 1.478 0 011.474 1.478v-2.222a1.478 1.478 0 00-1.474-1.478z" fill="#ff9d8a"></path><path d="M24.695 29.087H12.869a.739.739 0 00-.739.739v2.961a.739.739 0 00.739.739h11.826a.739.739 0 00.735-.739v-2.961a.739.739 0 00-.735-.739zm0 3.7H12.869v-2.961h11.826z" fill="#d82400"></path><path d="M28.746 30.853c.244.384.185.806-.14.931a.931.931 0 01-1.035-.458c-.251-.384-.185-.806.14-.939a.939.939 0 011.035.466zm-.48-1.729c.118.192.089.4-.074.466a.466.466 0 01-.52-.229c-.126-.192-.1-.407.067-.473a.5.5 0 01.527.236z" fill="#eaf6ff"></path></g>
                                                        </svg>