<svg height="34" width="29.565" xmlns="http://www.w3.org/2000/svg"><path d="M8.87 28.826h11.826v2.957H8.87z" fill="#f2ab66"></path><path d="M8.87 31.783h11.826v-2.957H8.87zm11.087-5.174h4.439a1.478 1.478 0 011.478 1.478v4.435A1.478 1.478 0 0124.396 34H5.174a1.478 1.478 0 01-1.478-1.478v-4.435a1.478 1.478 0 011.478-1.478z" fill="#343434"></path><path d="M17 14.782v3.755a2.957 2.957 0 00.865 1.877 7.487 7.487 0 001.722 1.39 3.814 3.814 0 011.843 3.268v.059a1.478 1.478 0 01-1.478 1.478H9.608a1.478 1.478 0 01-1.478-1.478v-.059a3.829 3.829 0 01.5-1.877 3.747 3.747 0 011.353-1.39c1.146-.687 2.587-1.929 2.587-3.267v-4.036a8.87 8.87 0 004.435 0z" fill="#f2ab66"></path><path d="M14.783 2.217l-1.479 2.957h-2.956l2.217 2.217-.739 3.7 2.957-2.221 2.957 2.217-.739-3.7 2.212-2.213h-2.952zM17 14.5A8.87 8.87 0 015.913 5.913V0h17.739v5.913a8.87 8.87 0 01-6.653 8.587z" fill="#f2ab66"></path><path d="M24.396 31.782H5.174a1.478 1.478 0 01-1.478-1.478v2.217a1.478 1.478 0 001.478 1.483h19.222a1.478 1.478 0 001.478-1.478v-2.222a1.478 1.478 0 01-1.478 1.478z" fill="#191919"></path><path d="M24.396 26.609H5.174a1.478 1.478 0 00-1.478 1.478v2.222a1.478 1.478 0 011.478-1.478h19.222a1.478 1.478 0 011.474 1.478v-2.222a1.478 1.478 0 00-1.474-1.478z" fill="#6b6b6b"></path><path d="M6.652 0h-.739v5.913a8.894 8.894 0 0015.522 5.913C12.794 11.486 6.652 8.389 6.652 0z" fill="#cd7f32"></path><path d="M19.897 4.893a.739.739 0 00-.68-.458h-2.5l-1.279-2.55a.739.739 0 00-1.316 0l-1.279 2.55h-2.5a.744.744 0 00-.525 1.264l1.937 1.937-.673 3.3a.739.739 0 001.168.739l2.528-1.885 2.517 1.887a.745.745 0 001.183-.739l-.658-3.3 1.937-1.937a.739.739 0 00.14-.806zm-2.9 2.5l.739 3.7-2.957-2.217-2.953 2.211.739-3.7-2.217-2.21h2.96l1.478-2.957 1.475 2.957h2.957z" fill="#cd7f32"></path><path d="M10.347 24.089a1.042 1.042 0 01.3-.739l2.092-2.092a4.435 4.435 0 001.3-3.141V17a1.478 1.478 0 011.478-1.478H17v-1.02a8.87 8.87 0 01-4.435 0v4.036c0 1.338-1.441 2.58-2.587 3.267a3.747 3.747 0 00-1.353 1.39 3.829 3.829 0 00-.495 1.877v.059a1.478 1.478 0 001.478 1.478h10.348a1.478 1.478 0 001.474-1.478H11.39a1.042 1.042 0 01-1.043-1.042z" fill="#b4691f"></path><path d="M20.695 28.087H8.869a.739.739 0 00-.739.739v2.961a.739.739 0 00.739.739h11.826a.739.739 0 00.735-.739v-2.961a.739.739 0 00-.735-.739zm0 3.7H8.869v-2.961h11.826z" fill="#0d0d0d"></path><path d="M22.373 2.262c.488.739.362 1.6-.281 1.863a1.877 1.877 0 01-2.062-.924c-.488-.739-.37-1.6.281-1.863a1.877 1.877 0 012.062.924zm.155 3.2c.244.384.185.806-.14.931a.931.931 0 01-1.035-.48c-.251-.384-.185-.806.14-.939a.939.939 0 011.035.488zm2.218 24.391c.244.384.185.806-.14.931a.931.931 0 01-1.035-.458c-.251-.384-.185-.806.14-.939a.939.939 0 011.035.466zm-.48-1.729c.118.192.089.4-.074.466a.466.466 0 01-.52-.229c-.126-.192-.1-.407.067-.473a.5.5 0 01.527.236z" fill="#eaf6ff"></path><path d="M13.305 5.174h-2.957l4.435 1.478zm2.956 0l-1.478-2.957v4.435z" fill="#e9ac6f"></path><path d="M14.782 2.217l-1.478 2.957 1.478 1.478zm4.436 2.957h-2.957l-1.478 1.478z" fill="#bc6f23"></path><path d="M17 7.391l2.218-2.217-4.435 1.478z" fill="#784a1d"></path><path d="M12.565 7.391l-.739 3.696 2.957-4.435z" fill="#4b2d10"></path><path d="M14.783 8.869l2.957 2.217-2.957-4.434z" fill="#784a1d"></path><path d="M14.783 6.652l2.957 4.435-.739-3.7z" fill="#bc6f23"></path><path d="M11.826 11.087l2.957-2.217V6.652z" fill="#985615"></path><path d="M10.348 5.174l2.217 2.217 2.217-.739zm17-4.435h-3.7v1.478h3.7a.739.739 0 01.739.739 10.884 10.884 0 01-2.234 6.583 10.745 10.745 0 01-5.784 3.854l-.953.254a8.811 8.811 0 01-2.116.855v1.155l.739-.135a.723.723 0 00.191-.025l2.52-.673a12.367 12.367 0 006.579-4.385 12.368 12.368 0 002.537-7.486A2.217 2.217 0 0027.348.739zM12.565 14.502a8.811 8.811 0 01-2.115-.851l-.953-.254a10.741 10.741 0 01-5.784-3.858 10.884 10.884 0 01-2.235-6.583.739.739 0 01.739-.739h3.7V.739h-3.7A2.217 2.217 0 000 2.956a12.371 12.371 0 002.541 7.483 12.369 12.369 0 006.574 4.38l2.52.673a.723.723 0 00.191.025l.739.135z" fill="#784a1d"></path></svg>